<?xml version="1.0" standalone="no"?>
<!DOCTYPE svg PUBLIC "-//W3C//DTD SVG 20010904//EN"
 "http://www.w3.org/TR/2001/REC-SVG-20010904/DTD/svg10.dtd">
<svg version="1.0" xmlns="http://www.w3.org/2000/svg"
 width="666.000000pt" height="375.000000pt" viewBox="0 0 666.000000 375.000000"
 preserveAspectRatio="xMidYMid meet">

<g transform="translate(0.000000,375.000000) scale(0.100000,-0.100000)"
fill="#000000" stroke="none">
<path d="M4130 3690 c-25 -5 -128 -13 -230 -20 -206 -12 -321 -30 -425 -67
-218 -76 -366 -196 -554 -446 -104 -139 -169 -211 -236 -257 -88 -61 -174
-205 -215 -360 -30 -111 -32 -299 -6 -410 l18 -75 -41 -103 c-87 -220 -192
-322 -391 -382 -195 -58 -300 -95 -360 -126 -253 -132 -335 -319 -256 -579 63
-205 68 -303 24 -393 -41 -81 -143 -142 -236 -142 -54 1 -114 20 -143 46 -26
23 -24 11 5 -34 75 -117 196 -201 381 -263 57 -20 91 -24 185 -24 107 0 118 2
155 26 22 15 47 35 56 45 18 21 59 106 59 124 0 23 42 138 73 200 46 94 169
214 267 262 151 75 270 82 655 39 215 -24 320 -26 438 -7 101 17 105 20 138
116 18 51 24 94 27 199 l4 134 -87 -5 c-109 -7 -218 6 -259 31 -61 38 -71 61
-152 336 -73 252 -82 406 -31 518 20 43 24 64 17 77 -5 10 -14 58 -20 106 -28
243 6 522 66 544 73 28 241 21 389 -17 37 -10 110 -16 190 -17 125 -1 132 0
177 27 30 18 66 54 98 98 57 78 90 100 116 78 15 -12 16 -29 10 -144 l-7 -131
64 4 c57 4 67 2 86 -19 27 -30 28 -87 0 -165 -38 -112 -41 -129 -36 -205 6
-87 29 -133 97 -192 50 -42 79 -52 87 -29 16 49 50 110 75 134 24 23 38 28 79
28 41 0 54 -5 74 -26 37 -40 48 -87 42 -178 -9 -126 -58 -228 -140 -287 -37
-27 -48 -30 -96 -26 l-53 4 5 -53 c4 -36 21 -84 56 -151 88 -173 88 -222 -1
-343 -26 -36 -54 -84 -62 -107 -13 -37 -13 -47 3 -100 10 -32 23 -68 30 -81
16 -30 17 -139 1 -186 -9 -30 -9 -50 1 -102 15 -74 14 -73 127 -110 42 -14
122 -49 178 -79 55 -29 120 -56 145 -60 43 -6 46 -5 75 32 47 58 91 140 116
218 18 57 22 93 23 195 0 123 -11 188 -51 290 -39 103 -56 193 -52 289 5 131
29 181 224 456 64 91 110 185 136 282 38 144 27 386 -29 598 -64 245 -194 502
-318 627 -94 96 -229 127 -310 73 -20 -15 -38 -25 -39 -23 -44 100 -143 223
-215 270 -38 24 -54 28 -110 27 -37 -1 -86 -5 -111 -9z"/>
</g>
</svg>
